<svg width="25" height="27" viewBox="0 0 25 27" fill="none" xmlns="http://www.w3.org/2000/svg">
<path fill-rule="evenodd" clip-rule="evenodd" d="M0.0606316 13.3569C0.0626811 12.2961 0.486073 11.2795 1.23767 10.5308C1.98926 9.78207 3.00749 9.36261 4.06835 9.36466L20.0683 9.39557C21.1292 9.39762 22.1458 9.82101 22.8945 10.5726C23.6432 11.3242 24.0626 12.3424 24.0606 13.4033L24.0426 22.7366C24.0405 23.7975 23.6171 24.8141 22.8655 25.5628C22.1139 26.3115 21.0957 26.7309 20.0348 26.7289L4.03486 26.698C2.974 26.6959 1.9574 26.2725 1.20871 25.5209C0.460012 24.7693 0.0405505 23.7511 0.0426 22.6902L0.0606316 13.3569ZM13.3888 16.0493C13.3895 15.6957 13.2497 15.3563 13.0001 15.1058C12.7505 14.8553 12.4117 14.7141 12.058 14.7134C11.7044 14.7128 11.365 14.8526 11.1145 15.1021C10.8639 15.3517 10.7228 15.6906 10.7221 16.0442L10.7144 20.0442C10.7137 20.3978 10.8535 20.7372 11.1031 20.9878C11.3527 21.2383 11.6915 21.3794 12.0452 21.3801C12.3988 21.3808 12.7382 21.241 12.9887 20.9914C13.2392 20.7418 13.3804 20.403 13.3811 20.0493L13.3888 16.0493Z" fill="#F76868"/>
<path d="M6.73295 10.7029L6.74067 6.70295C6.74341 5.28847 7.30793 3.933 8.31005 2.93474C9.31218 1.93648 10.6698 1.3772 12.0843 1.37993C13.4988 1.38267 14.8543 1.94719 15.8525 2.94931C16.8508 3.95144 17.4101 5.30907 17.4073 6.72356L17.3996 10.7236" stroke="#F76868" stroke-width="1.5" stroke-linecap="round" stroke-linejoin="round"/>
</svg>
