<svg width="33" height="33" viewBox="0 0 33 33" fill="none" xmlns="http://www.w3.org/2000/svg">
<path fill-rule="evenodd" clip-rule="evenodd" d="M4.70614 16.3569C4.70819 15.2961 5.13158 14.2795 5.88317 13.5308C6.63477 12.7821 7.653 12.3626 8.71386 12.3647L24.7138 12.3956C25.7747 12.3976 26.7913 12.821 27.54 13.5726C28.2887 14.3242 28.7081 15.3424 28.7061 16.4033L28.6881 25.7366C28.686 26.7975 28.2626 27.8141 27.511 28.5628C26.7594 29.3115 25.7412 29.7309 24.6803 29.7289L8.68037 29.698C7.61951 29.6959 6.60291 29.2725 5.85421 28.5209C5.10552 27.7693 4.68606 26.7511 4.68811 25.6902L4.70614 16.3569ZM18.0343 19.0493C18.035 18.6957 17.8952 18.3563 17.6456 18.1058C17.396 17.8553 17.0572 17.7141 16.7035 17.7134C16.3499 17.7128 16.0105 17.8526 15.76 18.1021C15.5094 18.3517 15.3683 18.6906 15.3676 19.0442L15.3599 23.0442C15.3592 23.3978 15.499 23.7372 15.7486 23.9878C15.9982 24.2383 16.337 24.3794 16.6907 24.3801C17.0443 24.3808 17.3837 24.241 17.6342 23.9914C17.8848 23.7418 18.0259 23.403 18.0266 23.0493L18.0343 19.0493Z" fill="#7DC960"/>
<path d="M11.3785 13.7029L11.3862 9.70295C11.3889 8.28847 11.9534 6.933 12.9556 5.93474C13.9577 4.93648 15.3153 4.3772 16.7298 4.37993C18.1443 4.38267 19.4998 4.94719 20.498 5.94931C21.4963 6.95144 22.0556 8.30907 22.0528 9.72356" stroke="#7DC960" stroke-width="1.5" stroke-linecap="round" stroke-linejoin="round"/>
</svg>
