<svg width="24" height="20" viewBox="0 0 24 20" fill="none" xmlns="http://www.w3.org/2000/svg">
<path d="M0 5.52941C0 4.42484 0.895431 3.52941 2 3.52941H4.8L7.2 0H16.8L19.2 3.52941H22C23.1046 3.52941 24 4.42484 24 5.52941V18C24 19.1046 23.1046 20 22 20H2C0.89543 20 0 19.1046 0 18V5.52941Z" fill="#7C7C7C"/>
<path d="M11.9995 7.80908C14.2503 7.80908 16.0493 9.5943 16.0493 11.7651C16.0492 13.9359 14.2503 15.7212 11.9995 15.7212C9.74884 15.7211 7.9498 13.9358 7.94971 11.7651C7.94971 9.59436 9.74878 7.80919 11.9995 7.80908Z" stroke="white" stroke-width="1.5"/>
<path d="M10.8003 4.11768H13.2003" stroke="white" stroke-width="1.5" stroke-linecap="round"/>
</svg>
