<svg width="24" height="24" viewBox="0 0 24 24" fill="none" xmlns="http://www.w3.org/2000/svg">
<path d="M20.4583 4.70559C19.9696 4.20109 19.3894 3.80089 18.7508 3.52784C18.1121 3.2548 17.4276 3.11426 16.7364 3.11426C16.0451 3.11426 15.3606 3.2548 14.722 3.52784C14.0834 3.80089 13.5031 4.20109 13.0144 4.70559L12.0002 5.75211L10.986 4.70559C9.99891 3.68701 8.66009 3.11479 7.2641 3.11479C5.8681 3.11479 4.52928 3.68701 3.54216 4.70559C2.55505 5.72416 2.00049 7.10564 2.00049 8.54613C2.00049 9.98661 2.55505 11.3681 3.54216 12.3867L4.55637 13.4332L12.0002 21.1143L19.4441 13.4332L20.4583 12.3867C20.9472 11.8824 21.3351 11.2837 21.5997 10.6247C21.8643 9.96574 22.0005 9.25943 22.0005 8.54613C22.0005 7.83282 21.8643 7.12651 21.5997 6.46754C21.3351 5.80857 20.9472 5.20985 20.4583 4.70559Z" stroke="#7C7C7C" stroke-width="1.5" stroke-linecap="round" stroke-linejoin="round"/>
</svg>
