<svg width="32" height="32" viewBox="0 0 32 32" fill="none" xmlns="http://www.w3.org/2000/svg">
<path d="M28 22.7647C28 23.317 27.5523 23.7647 27 23.7647H26.289L25.5222 31.1039C25.469 31.6132 25.0397 32 24.5276 32H6.47236C5.9603 32 5.53098 31.6132 5.47777 31.1039L4.71102 23.7647H4C3.44772 23.7647 3 23.317 3 22.7647V19C3 18.4477 3.44772 18 4 18H27C27.5523 18 28 18.4477 28 19V22.7647Z" fill="#EFEFEF"/>
<path d="M31.972 1.03225C32.003 0.480836 31.5514 0.0292643 31 0.0602428C22.1046 0.55999 14.9794 7.68515 14.4797 16.5806C14.4487 17.132 14.9003 17.5836 15.4517 17.5526C24.3471 17.0529 31.4723 9.92769 31.972 1.03225Z" fill="#EFEFEF"/>
<path d="M0.136578 1.99464C-0.0144815 0.900448 0.900496 -0.0145295 1.99469 0.13653C8.38017 1.01808 13.4336 6.07149 14.3151 12.457C14.4662 13.5512 13.5512 14.4661 12.457 14.3151C6.07154 13.4335 1.01813 8.38012 0.136578 1.99464Z" fill="#98DC7E"/>
</svg>
