<svg width="34" height="33" viewBox="0 0 34 33" fill="none" xmlns="http://www.w3.org/2000/svg">
<path d="M0.150846 4.99283C-0.0158997 3.90092 0.89985 2.98659 1.99601 3.12262C8.63713 3.94678 13.9054 8.82641 14.8492 15.0067C15.0159 16.0986 14.1002 17.0129 13.004 16.8769C6.36288 16.0527 1.09463 11.1731 0.150846 4.99283Z" fill="#98DC7E"/>
<path d="M28 23.7645C28 24.3167 27.5523 24.7645 27 24.7645H26.3574L25.6218 32.0995C25.5705 32.6106 25.1404 32.9998 24.6267 32.9998H7.37326C6.85962 32.9998 6.42951 32.6106 6.37825 32.0995L5.64258 24.7645H5C4.44772 24.7645 4 24.3167 4 23.7645V19.9998C4 19.4475 4.44772 18.9998 5 18.9998H27C27.5523 18.9998 28 19.4475 28 19.9998V23.7645Z" fill="#DDA05B"/>
<path d="M32.993 1.00007C33.0084 0.448005 32.5452 0.00881595 31.9947 0.0537057C22.8663 0.798125 15.7373 8.31791 15.4806 17.473C15.4651 18.0251 15.9284 18.4643 16.4789 18.4194C25.6073 17.675 32.7363 10.1552 32.993 1.00007Z" fill="#7DC960"/>
</svg>
