<svg width="34" height="33" viewBox="0 0 34 33" fill="none" xmlns="http://www.w3.org/2000/svg">
<path d="M0.650846 4.99307C0.4841 3.90116 1.39985 2.98683 2.49601 3.12286C9.13713 3.94702 14.4054 8.82665 15.3492 15.0069C15.5159 16.0988 14.6002 17.0132 13.504 16.8771C6.86288 16.053 1.59463 11.1734 0.650846 4.99307Z" fill="#98DC7E"/>
<path d="M28.5 23.7647C28.5 24.317 28.0523 24.7647 27.5 24.7647H26.8574L26.1218 32.0998C26.0705 32.6109 25.6404 33 25.1267 33H7.87326C7.35962 33 6.92951 32.6109 6.87825 32.0998L6.14258 24.7647H5.5C4.94772 24.7647 4.5 24.317 4.5 23.7647V20C4.5 19.4477 4.94772 19 5.5 19H27.5C28.0523 19 28.5 19.4477 28.5 20V23.7647Z" fill="#DDA05B"/>
<path d="M33.493 1.0008C33.5084 0.448737 33.0452 0.00954837 32.4947 0.0544381C23.3663 0.798857 16.2373 8.31864 15.9806 17.4737C15.9651 18.0258 16.4284 18.465 16.9789 18.4201C26.1073 17.6757 33.2363 10.1559 33.493 1.0008Z" fill="#7DC960"/>
</svg>
